<svg width="198" height="212" viewBox="0 0 198 212" fill="none" xmlns="http://www.w3.org/2000/svg">
<g id="Character">
<g id="Group">
<g id="Group_2">
<path id="Vector" d="M0.429932 211.031H110.059L88.2004 83.8784H6.22305L0.429932 211.031Z" fill="#DBDBDB"/>
<path id="Vector_2" d="M0.429932 211.031H10.0429L15.4371 83.8784H6.22305L0.429932 211.031Z" fill="#A6A6A6"/>
</g>
<g id="Group_3">
<path id="Vector_3" d="M86.4484 103.7C100.16 132.119 132.681 179.086 146.299 166.847C166.669 148.541 179.666 108.958 184.815 92.9592C187.701 83.9925 142.068 70.4123 139.523 78.5484C135.906 90.1165 130.402 114.22 126.915 117.709C125.077 119.546 109.704 99.1702 98.207 89.6253C81.6324 75.8659 82.0676 94.6205 86.4484 103.7Z" fill="#EB9481"/>
<g id="Group_4">
<path id="Vector_4" d="M194.484 73.6601C192.539 83.3868 180.781 101.723 176.244 105.056C171.706 108.388 139.77 90.3483 139.07 84.6138C138.369 78.8793 147.55 45.7251 155.303 39.2185C163.056 32.7119 196.498 63.5835 194.484 73.6601Z" fill="#EB9481"/>
<g id="Group_5">
<path id="Vector_5" d="M139.75 77.9374C139.75 77.9374 137.557 65.2224 131.999 55.3078C127.324 46.9719 119.441 35.1211 123.829 32.4395C132.839 26.9342 152.488 56.4952 152.488 56.4952C152.488 56.4952 159.063 70.9285 150.62 77.174C145.324 81.0903 139.75 77.9374 139.75 77.9374Z" fill="#EB9481"/>
</g>
<g id="Group_6">
<path id="Vector_6" d="M145.389 51.6224C147.174 56.565 151.977 51.6319 151.977 51.6319C151.977 51.6319 146.774 60.3987 150.585 64.7838C154.27 68.9991 159.862 62.8355 160.269 62.3995C159.997 62.8657 155.427 71.0465 159.71 75.0585C164.165 79.2239 168.717 72.0719 169.01 71.6092C168.892 72.1297 167.45 79.0395 171.396 81.3471C178.181 85.3092 182.355 67.7428 187.907 64.6364C187.907 64.6364 194.245 73.4446 194.483 73.6609C194.483 73.6609 198.796 57.0295 194.189 49.7758C191.76 45.9516 187.717 47.4604 187.717 47.4604C187.717 47.4604 189.7 42.2516 186.428 38.9875C184.743 37.3167 180.572 38.5239 180.572 38.5239C180.572 38.5239 181.986 34.287 178.893 31.5649C176.432 29.384 172.63 30.935 172.63 30.935C172.63 30.935 172.1 26.2371 168.862 24.8265C162.338 21.9649 141.576 41.0349 145.389 51.6224Z" fill="#EB9481"/>
<g id="Group_7">
<path id="Vector_7" d="M171.99 31.0866C172.065 31.0289 171.998 30.9134 171.913 30.96C163.555 35.5657 155.782 43.1864 151.689 51.8705C151.555 52.1557 151.959 52.4969 152.167 52.2117C158.097 44.0679 164.009 37.3132 171.99 31.0866Z" fill="#263238"/>
<path id="Vector_8" d="M180.636 38.386C180.723 38.3188 180.612 38.174 180.509 38.2318C171.923 43.0236 163.404 51.849 159.865 62.4141C159.744 62.7769 159.998 63.2232 160.169 62.8174C163.056 55.9696 173.423 43.9542 180.636 38.386Z" fill="#263238"/>
<path id="Vector_9" d="M169.017 72.4302C172.802 62.4303 179.412 54.6501 187.349 47.6343C187.452 47.5429 187.313 47.4059 187.205 47.4585C182.387 49.8324 177.794 54.8311 174.548 59.0232C171.441 63.0386 169.443 67.2868 168.667 72.2966C168.637 72.4922 168.936 72.6439 169.017 72.4302Z" fill="#263238"/>
</g>
<path id="Vector_10" d="M151.801 51.6645C151.64 52.0066 152.317 51.8653 152.167 52.2125C151.536 53.6722 148.494 62.7845 151.277 64.7845C153.512 66.3821 157.208 64.489 158.342 63.205L161.195 59.9763L159.638 64.0021C158.958 65.7591 158.487 67.71 158.417 69.5815C158.343 71.4488 158.766 73.3299 160.004 74.4871C161.273 75.7219 162.99 76.0407 164.489 75.1472C166.007 74.3251 167.317 72.7637 168.261 71.1989L170.901 66.8285L169.841 71.7995C169.554 73.1463 169.417 74.6224 169.488 76.0123C169.567 77.3996 169.877 78.7904 170.642 79.7779C171.388 80.749 172.677 81.3212 173.817 81.0515C175.02 80.7852 176.147 79.8029 177.119 78.7688C179.082 76.6336 180.612 74.0477 182.256 71.5608C183.07 70.3079 183.886 69.0482 184.763 67.828C185.652 66.6363 186.579 65.3687 187.907 64.6354C186.67 65.4954 185.911 66.8224 185.107 68.0572C184.334 69.3273 183.621 70.6363 182.905 71.9477C181.472 74.5707 180 77.1962 178.041 79.5848C177.032 80.7317 175.895 81.9407 174.167 82.4474C172.38 82.9558 170.479 82.1173 169.413 80.7481C168.318 79.3556 167.977 77.6788 167.854 76.1149C167.754 74.5216 167.868 72.9956 168.178 71.4169L169.756 72.0175C168.655 73.8745 167.345 75.5599 165.346 76.7258C164.36 77.2936 163.089 77.5961 161.872 77.372C160.647 77.1523 159.626 76.5302 158.796 75.7219C157.078 74.0347 156.669 71.5936 156.785 69.5109C156.909 67.3679 157.427 65.367 158.223 63.3946L159.519 64.1917C158.021 65.7746 154.12 68.3416 150.344 66.2994C145.821 62.9026 150.772 53.3474 151.801 51.6645Z" fill="#263238"/>
<path id="Vector_11" d="M151.976 51.6319C151.017 52.2592 150.025 52.7806 149.074 53.0382C148.124 53.3028 147.233 53.1003 146.654 52.529C146.059 51.968 145.751 50.959 145.546 49.9327C145.371 48.8892 145.24 47.7828 145.149 46.6342C144.675 47.6914 144.408 48.8392 144.401 50.0292C144.403 51.1994 144.615 52.5307 145.63 53.5845C146.17 54.0679 146.82 54.3859 147.522 54.4746C148.227 54.541 148.905 54.3919 149.471 54.111C150.618 53.5656 151.426 52.6453 151.976 51.6319Z" fill="#263238"/>
</g>
</g>
<g id="Group_8">
<path id="Vector_12" d="M136.795 79.4952L184.786 110.942C184.786 110.942 158.315 169.985 140.937 170.318C123.56 170.65 97.2351 127.727 88.0116 109.118C78.7881 90.5084 83.5403 74.3785 101.533 91.0866C119.635 107.896 125.996 114.672 126.558 114.425C127.648 113.941 136.795 79.4952 136.795 79.4952Z" fill="#4AA09B"/>
<path id="Vector_13" d="M184.787 110.945C184.787 110.945 166.436 151.891 150.254 165.772C147.013 168.563 143.852 170.262 140.94 170.313C123.563 170.65 97.233 127.725 88.0095 109.122C82.2956 97.5992 81.9467 87.0263 86.779 84.6179C89.7518 83.1289 94.6858 84.7213 101.538 91.0874C119.634 107.894 125.998 114.671 126.561 114.421C127.648 113.942 136.802 79.4995 136.802 79.4995L184.787 110.945Z" fill="#4AA09B"/>
<g id="Group_9">
<path id="Vector_14" d="M173.811 116.721C172.54 115.729 171.254 114.762 169.962 113.796C167.347 111.84 164.725 109.897 162.097 107.961C156.872 104.111 151.547 100.415 146.176 96.7765C143.128 94.7102 140.134 92.5258 136.997 90.5939C136.843 90.4999 136.698 90.7059 136.835 90.8205C139.341 92.9092 142.015 94.8075 144.609 96.7842C147.208 98.7644 149.785 100.763 152.42 102.695C157.651 106.532 162.945 110.276 168.282 113.963C169.779 114.997 171.247 116.095 172.788 117.061C173.579 117.558 174.329 118.114 175.128 118.6C175.928 119.086 176.763 119.513 177.549 120.023C177.635 120.079 177.722 119.958 177.641 119.893C176.343 118.862 175.121 117.744 173.811 116.721Z" fill="#263238"/>
<path id="Vector_15" d="M126.931 113.346C125.186 118.213 124.016 123.279 122.927 128.327C122.386 130.832 121.972 133.363 121.567 135.893C121.17 138.379 120.835 140.953 120.779 143.473C120.778 143.567 120.913 143.568 120.936 143.486C121.642 141.041 122.148 138.498 122.641 136.003C123.138 133.49 123.687 130.989 124.178 128.475C125.159 123.448 126.336 118.454 127.171 113.4C127.199 113.238 126.983 113.2 126.931 113.346Z" fill="#263238"/>
</g>
<path id="Vector_16" opacity="0.1" d="M150.254 165.773C147.013 168.564 143.852 170.262 140.94 170.314C123.563 170.651 97.233 127.726 88.0095 109.122C82.2956 97.5995 81.9467 87.0266 86.779 84.6182L150.254 165.773Z" fill="black"/>
</g>
</g>
<g id="Group_10">
<path id="Vector_17" d="M122.504 211.031H9.47139C8.97247 208.78 26.7508 109.735 64.8709 81.856C73.3284 75.6708 88.3321 79.6484 92.5061 85.6621C113.482 115.892 122.504 211.031 122.504 211.031Z" fill="#FFDE7D"/>
<path id="Vector_18" d="M62.3663 82.5987C62.3663 82.5987 72.3472 126.437 73.3761 130.22C74.4049 134.003 78.0981 211.031 78.0981 211.031H8.44629C8.44629 211.031 24.1178 112.795 62.3663 82.5987Z" fill="#4AA09B"/>
<path id="Vector_19" d="M92.5059 85.6628C92.5059 85.6628 96.8669 119.231 97.389 121.213C97.9121 123.194 112.188 211.03 112.188 211.03H123.041C123.041 211.03 113.579 109.467 92.5059 85.6628Z" fill="#4AA09B"/>
</g>
<g id="Group_11">
<g id="Group_12">
<path id="Vector_20" d="M49.0075 95.3132C28.6347 124.001 -0.879809 175.37 12.7219 184.516C35.0844 199.551 96.601 203.582 110.662 203.93C116.731 204.08 125.006 163.726 120.519 159.037C116.031 154.347 51.6348 156.87 50.8102 152.982C50.3431 150.778 58.2181 130.447 62.2085 106.055C66.8091 77.9304 54.7507 87.2263 49.0075 95.3132Z" fill="#EB9481"/>
<g id="Group_13">
<path id="Vector_21" d="M109.715 156.806C109.715 156.806 128.084 154.913 140.153 154.24C146.887 153.865 158.49 154.252 163.563 156.239C171.152 159.211 200.989 176.488 196.957 183.813C193.306 190.444 169.555 172.345 169.555 172.345C169.555 172.345 195.135 188.489 189.271 195.665C183.407 202.84 159.292 178.823 159.292 178.823C159.292 178.823 185.203 196 177.985 202.443C172.53 207.312 149.463 186.79 149.463 186.79C149.463 186.79 171.632 201.708 166.238 206.957C160.278 212.757 137.798 195.15 137.798 195.15C121.842 206.184 109.731 204.911 101.224 202.98C99.1646 202.511 109.715 156.806 109.715 156.806Z" fill="#EB9481"/>
<g id="Group_14">
<path id="Vector_22" d="M161.067 166.195C164.14 167.982 167.263 169.771 170.167 171.826C173.071 173.88 175.906 176.038 178.606 178.354C185.228 184.033 188.485 188.626 188.253 188.364C182.763 182.174 172.482 174.657 169.576 172.602C166.678 170.552 163.883 168.356 160.985 166.302C160.912 166.251 160.994 166.152 161.067 166.195Z" fill="#263238"/>
<path id="Vector_23" d="M153.457 176.545C157.283 178.997 161.17 181.292 164.889 183.914C168.589 186.523 173.652 190.357 177.164 193.214C177.434 193.433 177.231 193.915 176.95 193.705C173.328 190.99 167.985 187.318 164.332 184.646C160.691 181.983 157.126 179.159 153.392 176.631C153.334 176.592 153.399 176.508 153.457 176.545Z" fill="#263238"/>
<path id="Vector_24" d="M145.328 184.255C151.366 187.704 156.762 192.262 161.947 196.861C162.204 197.09 161.927 197.155 161.649 196.936C156.204 192.641 151.963 189.233 145.208 184.466C145.102 184.391 145.201 184.182 145.328 184.255Z" fill="#263238"/>
</g>
</g>
</g>
<path id="Vector_25" d="M109.746 154.403L92.4929 206.471C92.4929 206.471 13.9002 196.462 8.04243 182.265C2.18554 168.068 25.6605 125.046 45.0992 98.6063C64.2183 72.6006 65.8383 90.179 62.2839 109.231C58.7303 128.283 52.0375 150.481 53.1646 151.986C54.2926 153.491 109.746 154.403 109.746 154.403Z" fill="#4AA09B"/>
<g id="Group_15">
<path id="Vector_26" d="M82.8942 199.058C83.5078 197.568 84.0929 196.067 84.6745 194.564C85.8533 191.519 87.0183 188.47 88.1755 185.417C90.4762 179.348 92.6011 173.225 94.6606 167.073C95.8299 163.58 97.1267 160.109 98.1427 156.569C98.1918 156.396 97.9539 156.31 97.8807 156.474C96.5442 159.45 95.4352 162.536 94.2306 165.566C93.0234 168.602 91.7937 171.622 90.6417 174.681C88.3556 180.752 86.1755 186.859 84.0618 192.991C83.469 194.711 82.8072 196.422 82.2919 198.166C82.0274 199.061 81.6931 199.933 81.4406 200.833C81.1881 201.735 81.0011 202.653 80.7219 203.548C80.6909 203.645 80.8322 203.696 80.8719 203.602C81.5147 202.073 82.2618 200.596 82.8942 199.058Z" fill="#263238"/>
<g id="Group_16">
<g id="Group_17">
<path id="Vector_27" d="M93.8672 202.891L92.6461 206.528L92.6074 206.642L92.4755 206.63C85.059 205.955 77.6718 205.015 70.3112 203.881C62.9542 202.73 55.6221 201.392 48.3417 199.783C41.0699 198.153 33.8266 196.308 26.7668 193.844C23.239 192.614 19.7552 191.219 16.4274 189.487C14.773 188.605 13.1582 187.636 11.664 186.495C10.1914 185.352 8.78597 183.991 8.04492 182.263C8.94538 183.908 10.4163 185.1 11.9216 186.138C13.458 187.155 15.103 188 16.785 188.757C20.1473 190.281 23.6501 191.487 27.1778 192.598C34.2514 194.778 41.4646 196.524 48.7096 198.112C55.9564 199.701 63.2445 201.123 70.5508 202.462C77.8562 203.806 85.1771 205.098 92.5143 206.31L92.3437 206.412L93.8672 202.891Z" fill="#263238"/>
</g>
<g id="Group_18">
<g id="Group_19">
<path id="Vector_28" d="M109.075 156.435L109.66 154.374L109.747 154.497C101.979 154.699 94.2105 154.79 86.4424 154.715C78.6735 154.647 70.9071 154.482 63.133 154.067C61.189 153.949 59.2459 153.822 57.2942 153.633C56.3153 153.534 55.3442 153.435 54.3377 153.254C54.0844 153.208 53.8328 153.158 53.5544 153.082C53.4252 153.051 53.2675 152.996 53.1055 152.933C53.0349 152.909 52.8892 152.825 52.791 152.762C52.7643 152.756 52.6109 152.622 52.5282 152.501C52.4825 152.438 52.4429 152.371 52.411 152.304C52.3834 152.243 52.3912 152.238 52.38 152.202C52.2585 151.653 52.33 151.47 52.33 151.167C52.3584 150.912 52.3774 150.644 52.4162 150.4C53.0254 146.475 53.9207 142.723 54.8228 138.931C56.6324 131.371 58.6651 123.871 60.8435 116.411L56.118 139.219C55.3717 143.012 54.517 146.835 54.0198 150.597C53.987 150.833 53.9793 151.051 53.9569 151.278C53.9431 151.459 53.9612 151.765 53.9457 151.694C53.9422 151.686 53.9448 151.715 53.9345 151.678C53.9224 151.635 53.9017 151.591 53.8759 151.551C53.8336 151.474 53.7104 151.397 53.7432 151.414C53.7526 151.406 53.7061 151.396 53.7509 151.411C53.8164 151.433 53.8871 151.462 53.9939 151.486C54.1835 151.538 54.4084 151.582 54.6333 151.62C55.538 151.777 56.5006 151.872 57.4536 151.961C59.3674 152.132 61.2993 152.247 63.2312 152.35C67.0959 152.564 70.9708 152.734 74.8459 152.872L86.4769 153.319C94.2329 153.594 101.992 153.94 109.751 154.309L109.883 154.315L109.839 154.431L109.075 156.435Z" fill="#263238"/>
</g>
<g id="Group_20">
<path id="Vector_29" d="M62.1356 121.103C61.7151 122.471 61.1007 123.746 60.4191 124.983C59.7177 126.205 58.9577 127.419 57.9297 128.424C58.5337 127.133 59.1714 125.895 59.8564 124.667C60.5509 123.447 61.2644 122.237 62.1356 121.103Z" fill="#263238"/>
</g>
</g>
</g>
</g>
</g>
<g id="Group_21">
<g id="Group_22">
<g id="Group_23">
<path id="Vector_30" d="M87.0264 101.083C80.4698 102.949 68.6363 93.3364 63.7721 85.3322C63.442 84.7815 64.7604 62.1683 64.5571 57.66C64.5105 56.7345 93.1426 63.2506 93.1426 63.2506C93.1426 63.2506 90.7902 72.8265 91.1935 80.6842C91.2349 81.34 93.3624 99.2742 87.0264 101.083Z" fill="#EB9481"/>
</g>
<path id="Vector_31" d="M64.1611 71.8209C77.544 81.2701 90.5796 77.6415 91.1672 77.4718C91.3758 70.4404 93.1448 63.2479 93.1448 63.2479C93.1448 63.2479 64.5093 56.731 64.5584 57.6582C64.6514 59.7779 64.4145 65.8804 64.1611 71.8209Z" fill="#263238"/>
</g>
<g id="Group_24">
<g id="Group_25">
<g id="Group_26">
<path id="Vector_32" d="M91.6293 41.6876C92.3635 48.3605 97.7034 53.2471 103.557 52.6034C109.411 51.9597 113.562 46.0287 112.828 39.3567C112.094 32.6847 106.754 27.7972 100.9 28.4409C95.0459 29.0845 90.8952 35.0155 91.6293 41.6876Z" fill="#455A64"/>
</g>
<path id="Vector_33" d="M88.2412 42.4864C89.0572 49.909 94.9985 55.3462 101.51 54.6302C108.022 53.9141 112.64 47.3162 111.824 39.8936C111.008 32.471 105.066 27.0338 98.5547 27.7499C92.0429 28.4659 87.4252 35.0638 88.2412 42.4864Z" fill="#C7C7C7"/>
</g>
<g id="Group_27">
<path id="Vector_34" d="M60.6038 23.6908C57.4801 33.7079 62.6037 62.7313 69.7023 69.2387C79.9934 78.6724 96.9299 79.672 104.967 67.2809C112.758 55.2708 105.411 17.5642 97.4745 11.6419C85.7831 2.91816 65.2172 8.89309 60.6038 23.6908Z" fill="#EB9481"/>
</g>
<g id="Group_28">
<g id="Group_29">
<path id="Vector_35" d="M84.7263 41.9127C84.697 41.8421 84.5918 42.0342 84.6099 42.1144C85.0451 44.0523 85.2166 46.3452 83.5768 47.3293C83.5259 47.3603 83.5509 47.4568 83.6138 47.4353C85.7077 46.7201 85.4492 43.6792 84.7263 41.9127Z" fill="#263238"/>
<path id="Vector_36" d="M82.5957 40.211C79.4143 40.573 80.3725 46.9098 83.3204 46.5737C86.2208 46.2429 85.2626 39.9069 82.5957 40.211Z" fill="#263238"/>
</g>
<g id="Group_30">
<path id="Vector_37" d="M96.0103 40.3894C96.0137 40.3118 96.1774 40.4592 96.1878 40.5393C96.4221 42.5117 97.0228 44.7306 98.8969 45.114C98.9555 45.1261 98.965 45.226 98.8978 45.226C96.685 45.2493 95.9163 42.2954 96.0103 40.3894Z" fill="#263238"/>
<path id="Vector_38" d="M97.4543 38.074C100.574 37.3571 101.78 43.6508 98.889 44.3152C96.0428 44.9692 94.8382 38.6755 97.4543 38.074Z" fill="#263238"/>
</g>
<path id="Vector_39" d="M79.6565 37.6913C80.4863 37.3431 81.1938 36.8847 81.9796 36.4556C82.8654 35.9713 83.6211 35.6775 84.1089 34.7434C84.3699 34.2428 84.1106 33.4535 83.6478 33.1545C82.5699 32.4565 81.3377 32.7796 80.2468 33.3191C79.0628 33.9041 78.3011 34.6573 77.7539 35.8559C77.224 37.0174 78.5622 38.1497 79.6565 37.6913Z" fill="#263238"/>
<path id="Vector_40" d="M99.4206 34.5125C98.5201 34.5022 97.692 34.3428 96.8036 34.2403C95.7998 34.1248 94.9898 34.136 94.1875 33.4535C93.7567 33.0873 93.7016 32.2592 94.0178 31.8068C94.7545 30.7556 96.0178 30.5919 97.231 30.6815C98.5477 30.7789 99.5369 31.1907 100.494 32.0964C101.422 32.9744 100.607 34.5272 99.4206 34.5125Z" fill="#263238"/>
<path id="Vector_41" d="M85.8019 60.3124C86.3413 60.701 86.9066 61.2628 87.6278 61.2146C88.3197 61.1689 89.0737 60.7389 89.6631 60.4012C89.7208 60.3684 89.7941 60.4244 89.7639 60.4891C89.3684 61.3197 88.368 61.9539 87.4339 61.9315C86.5214 61.9108 85.9665 61.2094 85.6278 60.4287C85.5796 60.321 85.7235 60.2564 85.8019 60.3124Z" fill="#263238"/>
<g id="Group_31">
<g id="Group_32">
<path id="Vector_42" d="M86.9762 54.1237C88.3325 55.661 90.0886 56.3486 91.887 56.4227C92.6909 56.4615 93.5147 56.3641 94.3074 56.1694C94.4651 56.1418 94.6202 56.1004 94.759 56.047C94.8994 56.0082 95.0261 55.972 95.1786 55.916C95.4027 55.8479 95.5 55.6394 95.506 55.4171L95.5035 55.4024C95.4914 55.3309 95.4819 55.2732 95.4543 55.2043C95.4543 55.2043 95.4543 55.2043 95.4526 55.1896L95.4233 55.0181C95.2363 53.5007 94.7417 51.225 94.7417 51.225C95.3363 51.418 98.3427 52.259 98.179 51.4757C96.8003 44.9984 95.2665 37.7956 92.5263 31.6414C92.4462 31.4338 92.1239 31.5337 92.1756 31.7457C93.2545 38.0231 95.4302 44.0678 96.6142 50.3564C95.6646 50.1513 94.1032 49.7403 93.3148 49.8765C93.1097 49.9704 94.3488 54.2581 94.3781 54.9466C94.3781 54.9466 94.3833 54.9759 94.3764 55.0207C91.887 55.729 89.8568 55.2517 87.1339 53.9195C86.9702 53.8299 86.8349 53.9858 86.9762 54.1237Z" fill="#263238"/>
</g>
</g>
<g id="Group_33">
<path id="Vector_43" d="M93.2998 55.5377C93.2998 55.5377 92.233 57.548 90.4976 58.4786C89.8582 58.8233 89.1448 59.0292 88.3511 58.9413C86.7217 58.7664 86.4649 57.3343 86.5657 56.0598C86.6459 55.012 86.9836 54.0693 86.9836 54.0693C86.9836 54.0693 89.5954 55.866 93.2998 55.5377Z" fill="#263238"/>
<path id="Vector_44" d="M90.4964 58.4786C89.857 58.8233 89.1435 59.0292 88.3499 58.9413C86.7205 58.7664 86.4637 57.3343 86.5645 56.0598C88.2715 55.978 90.1069 56.8664 90.4964 58.4786Z" fill="#FF99BA"/>
</g>
</g>
<g id="Group_34">
<path id="Vector_45" d="M61.437 49.1673C68.682 47.7644 67.5894 34.3351 67.5894 34.3351C67.5894 34.3351 79.6513 29.9292 79.6797 20.2146C79.6797 20.2146 92.9282 25.5131 101.579 20.3775C110.228 15.2418 106.282 5.10666 104.825 3.05412C103.37 1.00158 99.0117 6.15447 99.0117 6.15447C99.0117 6.15447 97.2935 0.320855 95.589 0.0166794C93.8846 -0.287496 92.8428 3.6392 92.8428 3.6392C92.8428 3.6392 80.1114 1.89774 69.3093 4.27082C58.5072 6.64391 55.2104 18.6127 55.2104 18.6127C55.2104 18.6127 49.6379 20.9488 48.5289 25.3744C47.4182 29.8009 56.8183 50.0617 61.437 49.1673Z" fill="#263238"/>
<path id="Vector_46" d="M64.675 34.9829C74.5456 34.4314 79.7174 26.8202 79.3633 17.3295C79.359 17.2124 79.527 17.1917 79.5459 17.3097C80.9022 25.9542 74.6981 37.0544 64.6638 35.4258C64.4216 35.387 64.4173 34.9976 64.675 34.9829Z" fill="#263238"/>
<path id="Vector_47" d="M55.4372 18.3887C55.544 18.3413 55.6319 18.4999 55.5371 18.5671C53.0804 20.3284 50.1714 21.8518 48.7436 24.6678C47.0185 28.0689 48.2507 31.8663 49.7457 35.077C52.0611 40.0498 56.0438 46.3246 61.2975 48.5081C61.5999 48.6339 61.3948 49.0768 61.0924 48.9691C54.8615 46.7304 49.9301 38.5444 47.9887 32.5402C45.8138 25.819 49.3545 21.0832 55.4372 18.3887Z" fill="#263238"/>
<path id="Vector_48" d="M90.7373 20.8971C95.4628 22.6463 101.781 21.5597 105.383 17.8648C109.771 13.3633 107.588 7.73048 104.47 3.28159C104.317 3.06272 104.614 2.73959 104.822 2.94209C108.634 6.65251 110.113 13.1057 106.67 17.5727C103.111 22.1896 95.6541 23.4769 90.4435 21.5554C90.0084 21.396 90.3031 20.7359 90.7373 20.8971Z" fill="#263238"/>
</g>
<g id="Group_35">
<path id="Vector_49" d="M66.6543 47.3554C66.6543 47.3554 59.9685 38.0724 55.747 40.4696C51.5256 42.8668 56.6458 56.3867 61.6651 58.1756C66.6853 59.9644 68.4319 55.3501 68.4319 55.3501L66.6543 47.3554Z" fill="#EB9481"/>
<path id="Vector_50" d="M57.3111 44.3085C57.231 44.3024 57.2172 44.4153 57.287 44.4429C60.8087 45.8121 62.6975 49.0331 64.0349 52.3816C62.975 51.1003 61.548 50.4101 59.829 51.6741C59.7394 51.7405 59.8281 51.8827 59.9263 51.8603C61.3567 51.5328 62.3951 51.7663 63.38 52.9021C64.0779 53.706 64.5605 54.728 65.0654 55.6603C65.2335 55.9714 65.797 55.7956 65.6721 55.4371C65.6626 55.4104 65.6523 55.3829 65.6428 55.357C65.6686 50.89 62.1107 44.691 57.3111 44.3085Z" fill="#263238"/>
</g>
<g id="Group_36">
<path id="Vector_51" d="M59.3558 40.7986C59.3558 40.7986 55.7393 26.386 58.5553 17.5649C61.6901 7.74513 74.6361 -0.984617 92.8444 3.64005C92.8444 3.64005 71.97 4.21652 64.4397 17.1634C60.9766 23.1176 64.2976 40.3048 64.2976 40.3048L59.3558 40.7986Z" fill="#C7C7C7"/>
<path id="Vector_52" d="M74.3552 45.6972C75.7761 53.1172 71.6503 60.1433 65.1403 61.3893C58.6302 62.6362 52.2012 57.6307 50.7803 50.2107C49.3594 42.7907 53.4851 35.7645 59.9943 34.5177C66.5052 33.2717 72.9342 38.2763 74.3552 45.6972Z" fill="#C7C7C7"/>
<path id="Vector_53" d="M70.8399 45.9334C72.117 52.6037 68.4091 58.919 62.5574 60.0392C56.7057 61.1594 50.9264 56.6605 49.6493 49.991C48.3723 43.3216 52.081 37.0054 57.9319 35.8852C63.7836 34.7651 69.5629 39.2639 70.8399 45.9334Z" fill="#455A64"/>
</g>
</g>
</g>
</g>
</g>
</svg>
