<svg width="150" height="32" viewBox="0 0 150 32" fill="none" xmlns="http://www.w3.org/2000/svg">
<path id="path7" d="M146.8 0.5C142.286 0.5 138.398 2.14451 135.181 5.30819L135.178 5.31053L135.176 5.31229C132.005 8.48338 130.416 12.3763 130.416 16.8845V27.7941C130.416 28.6412 130.714 29.4583 131.355 30.0526C131.949 30.6951 132.767 30.9939 133.615 30.9939C134.423 30.9939 135.231 30.695 135.825 30.0526C136.451 29.4741 136.815 28.6746 136.815 27.7941V16.8845C136.815 14.1054 137.762 11.7895 139.707 9.84422C141.707 7.84412 144.021 6.90077 146.8 6.90077C147.656 6.90077 148.425 6.54414 149.038 5.9921L149.066 5.9669L149.091 5.93884C149.643 5.32548 150 4.5572 150 3.70094C150 2.84468 149.663 2.03199 149.066 1.43501L149.052 1.42127L149.038 1.40869C148.425 0.856684 147.656 0.5 146.8 0.5ZM13.9538 0.603569C10.1144 0.603569 6.79217 1.98834 4.08837 4.69194C1.38474 7.39556 0 10.7162 0 14.5064V27.7939C0 28.6888 0.350391 29.5279 0.985898 30.1634C1.63834 30.8159 2.48387 31.0973 3.30333 31.0973C4.16395 31.0973 5.01925 30.8159 5.67169 30.1634C6.32413 29.511 6.60666 28.6546 6.60666 27.7939V14.5064C6.60666 12.5172 7.34213 10.8103 8.77475 9.37767L8.77876 9.3741L8.78278 9.3695C10.2092 7.89555 11.8982 7.21 13.9542 7.21C16.0105 7.21 17.6457 7.88936 19.1339 9.3775C20.5609 10.8045 21.2499 12.5055 21.2499 14.5062V27.8447C21.2499 28.701 21.6003 29.5272 22.2358 30.1627C22.8713 30.7982 23.697 31.1481 24.5533 31.1481C25.4481 31.1481 26.2872 30.7983 26.9227 30.1627C27.5752 29.5103 27.8566 28.6539 27.8566 27.7932V14.506C27.8566 10.7158 26.475 7.39972 23.8259 4.6968L23.8233 4.69416L23.8209 4.69182C21.114 1.98482 17.7445 0.603453 13.9544 0.603453L13.9538 0.603569ZM76.1158 1.06877C73.3175 1.06877 70.7521 1.71963 68.5165 3.028C68.5159 3.02829 68.5147 3.02888 68.5141 3.02946C66.2364 4.33276 64.4779 6.14635 63.2316 8.42242C61.9781 10.7115 61.3857 13.3214 61.3857 16.1609C61.3857 18.9507 61.9791 21.5653 63.29 23.8592C64.5911 26.1362 66.3995 27.9432 68.6768 29.2443C70.9592 30.5485 73.5254 31.2012 76.3739 31.2012C80.2429 31.2012 83.5575 29.9935 86.1717 27.5426L86.1802 27.5346L86.1888 27.5266C86.7082 27.0072 87.0191 26.3308 87.0191 25.6223C87.0191 24.6924 86.5134 23.8827 85.8037 23.2322L85.7774 23.2081L85.7499 23.1864C85.2214 22.79 84.5993 22.5776 83.9743 22.5776C83.1544 22.5776 82.3475 22.9075 81.63 23.4456L81.6117 23.4594L81.5945 23.4748C80.3018 24.5828 78.5834 25.1107 76.3738 25.1107C74.6736 25.1107 73.2106 24.7288 71.9318 23.9709C70.6437 23.2076 69.6587 22.1767 68.9409 20.837C68.2323 19.5144 67.8886 17.9292 67.8886 16.161C67.8886 13.4024 68.6609 11.2309 70.1757 9.62134C71.7071 7.99425 73.5929 7.15859 76.1156 7.15859C77.3125 7.15859 78.3513 7.3955 79.3125 7.78C80.2355 8.14917 81.0775 8.75031 81.9012 9.62251L81.8714 9.58932C82.5091 10.3544 83.4327 10.7784 84.4395 10.7784C84.9728 10.7784 85.5469 10.6391 86.0456 10.2828C86.8853 9.68307 87.4842 8.81603 87.4842 7.78516C87.4842 7.07665 87.18 6.48568 86.8239 6.01078L86.8078 5.98959L86.7912 5.97072C83.9833 2.73079 80.3325 1.06937 76.1158 1.06937L76.1158 1.06877ZM108.09 1.06877C103.985 1.06877 100.361 2.60773 97.4497 5.51866C94.5387 8.42974 93.0511 12.0114 93.0511 16.1604C93.0511 20.3095 94.5385 23.8913 97.4497 26.8022C100.364 29.7164 103.991 31.2008 108.09 31.2008C111.339 31.2008 114.28 30.223 116.851 28.3702C116.927 29.0797 117.178 29.756 117.723 30.2607C118.317 30.9026 119.135 31.2008 119.982 31.2008C120.802 31.2008 121.613 30.9014 122.248 30.2659C122.826 29.6877 123.182 28.8948 123.182 27.9999V16.1605C123.182 12.0135 121.694 8.42936 118.732 5.51873C115.824 2.61081 112.245 1.06877 108.09 1.06877ZM36.2662 1.27648C35.4056 1.27648 34.6141 1.54502 34.0524 2.10676C33.4907 2.66849 33.273 3.41419 33.273 4.11347C33.273 5.00829 33.6231 5.82704 34.2155 6.5379L34.2172 6.54054L42.3682 16.1736L34.7323 25.7311C34.732 25.7314 34.7314 25.7308 34.7308 25.7311C34.1239 26.4599 33.8416 27.2844 33.8416 28.1035C33.8416 28.8436 34.0586 29.6011 34.6203 30.1628C35.1609 30.7034 35.9221 30.9931 36.7827 30.9931C37.6775 30.9931 38.5391 30.6313 39.1757 29.9311L39.1911 29.9133L46.4649 20.7604L54.1217 29.9084L54.0913 29.87C54.645 30.6313 55.5566 30.9932 56.5335 30.9932C57.3529 30.9932 58.1341 30.7247 58.6958 30.163C59.2152 29.6436 59.5782 28.9235 59.5782 28.1036C59.5782 27.2473 59.2375 26.4441 58.6695 25.8131L50.8355 16.4513L58.2954 6.71856L58.2971 6.71622C58.8352 5.99877 59.1646 5.15253 59.1646 4.21741C59.1646 3.43741 58.8743 2.69919 58.3338 2.15863C57.8144 1.63923 57.0792 1.2763 56.2229 1.2763C55.2161 1.2763 54.288 1.68291 53.7298 2.45045L46.6787 11.8512L38.7726 2.40065L38.7617 2.38923C38.1398 1.70509 37.273 1.27648 36.2662 1.27648ZM108.09 7.46954C110.503 7.46954 112.505 8.30702 114.193 10.0433L114.2 10.0508L114.208 10.0576C115.945 11.7457 116.783 13.7478 116.783 16.1607C116.783 18.5735 115.945 20.5758 114.208 22.2638L114.2 22.2707L114.193 22.2776C112.51 24.0091 110.513 24.8004 108.09 24.8004C105.668 24.8004 103.671 24.0091 101.988 22.2776L101.98 22.2707L101.974 22.2638C100.242 20.5804 99.4507 18.583 99.4507 16.1607C99.4507 13.7384 100.242 11.741 101.974 10.0576L101.98 10.0508L101.988 10.0433C103.676 8.30702 105.677 7.46954 108.09 7.46954Z" fill="url(#paint0_linear_1_22649)"/>
<defs>
<linearGradient id="paint0_linear_1_22649" x1="7.97107e-07" y1="6.03589" x2="143.406" y2="60.1708" gradientUnits="userSpaceOnUse">
<stop stop-color="#4AA09B"/>
<stop offset="1" stop-color="#41CFC7"/>
</linearGradient>
</defs>
</svg>
