<svg xmlns="http://www.w3.org/2000/svg"  viewBox="0 0 100 100" width="500px" height="500px"><path d="M89.041,51c-2.028,0-4.168,0.383-5.389-1.236 c-1.89-2.505-7.338-4.902-11.73-6.57c-8.264-3.139-18.91-8.28-18.91-20.735c0-12.69,9.896-18.47,19.092-18.47 c8.682,0,17.908,5.568,17.908,15.888c0,4.165-1.221,7.349-3.137,9.633c4.517,2.847,8.666,7.291,8.666,14.99 c0,2.799-1.783,5.276-4.437,6.164C90.43,50.888,89.739,51,89.041,51z" opacity=".35"/><path fill="#f2f2f2" d="M87.041,49c-2.028,0-3.968-0.967-5.189-2.586c-1.89-2.505-6.869-4.396-11.262-6.064 c-8.264-3.139-19.578-7.436-19.578-19.891c0-12.69,9.896-18.47,19.092-18.47c8.682,0,17.908,5.568,17.908,15.888 c0,4.165-1.221,7.349-3.137,9.633c4.517,2.847,8.666,7.291,8.666,14.99c0,2.799-1.783,5.276-4.437,6.164 C88.43,48.888,87.739,49,87.041,49z"/><path d="M30.506,98c-2.313,0-4.47-1.244-5.628-3.247 c-1.159-2.014-1.157-4.504,0.002-6.508c1.328-2.295,3.032-4.335,5.015-6.034c-1.79-0.878-3.503-0.927-5.135-2.144 c-1.594,1.242-3.618,1.954-5.9,1.954c-5.151,0-8.544-3.894-9.621-7.753c-0.472-1.7-0.194-5.038,0.593-6.475 c-3.731-2.665-7.777-5.18-7.831-12.151c-0.058-7.471,5.748-13.523,13.219-13.64c4.606-0.072,6.987,2.712,9.705,5.998 c0.422,0.51,2.31-0.024,2.667,0.555c1.563-2.798,3.771-5.209,6.423-7.014C34.005,41.361,34,41.181,34,41c0-6.065,4.935-11,11-11 c6.03,0,12.101,5.794,12.157,11.812c3.104,1.855,1.279,4.013,3.034,7.188c8.735-0.684,20.333-5.252,20.424-5.298 C81.505,43.247,82.528,43,83.553,43H93.5c2.919,0,5.497,1.966,6.27,4.782c0.77,2.826-0.45,5.83-2.963,7.314 c-5.227,3.091-9.936,7.64-14.489,12.039c-6.326,6.113-13.312,11.861-22.638,15.564c1.674,1.53,3.134,3.311,4.311,5.287 c0.869,1.459,1.253,3.196,0.892,4.856C64.209,95.941,61.493,98,58.517,98H30.506z" opacity=".35"/><path fill="#f2f2f2" d="M28.506,96c-2.313,0-4.47-1.244-5.628-3.247c-1.159-2.014-1.157-4.504,0.002-6.508 c1.328-2.295,3.032-3.335,5.015-5.034c-1.79-0.878-3.503-1.927-5.135-3.144c-1.594,1.242-3.618,1.954-5.9,1.954 c-5.151,0-8.544-3.894-9.621-7.753c-0.472-1.7-0.222-3.433,0.565-4.87C4.048,64.715,0,60.58,0,53.5C0,46.056,6.056,40,13.5,40 c4.482,0,8.26,1.701,10.923,4.92c0.422,0.51,0.812,1.056,1.168,1.635c1.563-2.798,3.771-5.209,6.423-7.014 C32.005,39.361,32,39.181,32,39c0-6.065,4.935-11,11-11c6.03,0,10.943,4.878,11,10.896c3.104,1.855,5.679,4.515,7.434,7.69 c8.735-0.684,17.091-4.839,17.182-4.885C79.505,41.247,80.528,41,81.553,41H91.5c2.919,0,5.497,1.966,6.27,4.782 c0.77,2.826-0.45,5.83-2.963,7.314c-5.227,3.091-9.936,7.64-14.489,12.039c-6.326,6.113-13.312,12.861-22.638,16.564 c1.747,1.596,3.26,2.466,4.463,4.545c1.159,2.005,1.161,4.497,0.006,6.502C60.986,94.756,58.83,96,56.517,96H28.506z"/><path fill="#ef8630" d="M47.5,84.551h-10c0-7.23,2-9.051,2-9.051h6C45.5,75.5,47.5,77.32,47.5,84.551z"/><ellipse cx="43" cy="39.868" fill="#f9b84f" rx="4.5" ry="5.352"/><circle cx="43.362" cy="57.812" r="13.795" fill="#ef8630"/><path fill="#d9eeff" d="M70.103,8.489c4.043,0,11.408,1.062,11.408,9.388c0,7.9-6.202,7.654-7.488,7.654 c-1.139,0-5.579-1.493-5.579-6.004c0,0-1.949-0.238-1.949,2.494c0,9.457,20.546,8.597,20.546,20.479 c-12.086-10.601-29.53-7.365-29.53-22.041C57.511,11.004,65.854,8.489,70.103,8.489z"/><path fill="#f9b84f" d="M42.636,76.534c-6.294,0-11.839-2.016-16.48-5.99c-3.473-2.975-3.587-7.073-2.536-9.916 c1.062-2.875,3.846-5.946,8.468-5.946H59.08c10.617,0,20.84-4.714,22.824-5.681h4.625c-4.26,3.126-8.064,6.804-11.773,10.389 C65.635,68.206,57.02,76.534,42.636,76.534z"/><path fill="#f9b84f" d="M55.681,89.713c-2.974-4.207-7.766-6.938-13.17-6.938c-5.365,0-10.125,2.69-13.104,6.845 C29.086,90.069,55.978,90.133,55.681,89.713z"/><path fill="none" stroke="#40396e" stroke-linecap="round" stroke-linejoin="round" stroke-miterlimit="10" stroke-width="3" d="M47.491,82.071c0-1.565-0.419-2.641-1.116-4.235C66.66,75.752,75.539,56.938,91.5,47.5h-9.948c0,0-11.121,5.681-22.472,5.681 h-1.993c-1.331-5.463-5.858-9.666-11.493-10.515C46.744,41.851,47.5,40.516,47.5,39c0-2.485-2.015-4.5-4.5-4.5s-4.5,2.015-4.5,4.5 c0,1.611,0.853,3.013,2.125,3.808c-5.349,1.12-9.575,5.286-10.773,10.608c-8.119,1.696-11.459,12.453-4.672,18.266 c3.459,2.963,7.878,5.313,13.466,6.082c-0.671,1.433-1.137,2.572-1.137,4.313c-3.793,1.269-6.984,3.934-9.003,7.422h28.011 C54.494,86.005,51.294,83.336,47.491,82.071z"/><path fill="none" stroke="#40396e" stroke-linecap="round" stroke-linejoin="round" stroke-miterlimit="10" stroke-width="3" d="M21.5,63.539c0,0,3.247-17.039-8-17.039c-3.866,0-7,3.134-7,7c0,10,13.444,10.376,13.444,16.494c0,1.365-0.607,3.527-3.084,3.527 c-2.522,0-3.359-3-3.359-3"/><path fill="none" stroke="#40396e" stroke-linecap="round" stroke-linejoin="round" stroke-miterlimit="10" stroke-width="3" d="M70.103,8.489c4.043,0,11.408,2.242,11.408,9.388c0,6.86-4.938,7.654-6.893,7.654c-1.882,0-6.174-1.493-6.174-6.004 c0,0-1.949-0.238-1.949,2.494c0,9.457,20.546,6.709,20.546,20.479c-7.272-9.638-29.53-8.41-29.53-22.041 C57.511,10.933,65.045,8.489,70.103,8.489z"/></svg>